<mxfile host="app.diagrams.net" modified="2023-10-05T14:30:21.918Z" agent="Mozilla/5.0 (Macintosh; Intel Mac OS X 10_15_7) AppleWebKit/537.36 (KHTML, like Gecko) Chrome/117.0.0.0 Safari/537.36" version="22.0.2" etag="RJ-Glh7u9DdGA8Y2XMUX" type="github">
  <diagram name="Trang-1" id="tPzgi9V5ac7_rbctsXmF">
    <mxGraphModel>
      <root>
        <mxCell id="0" />
        <mxCell id="1" parent="0" />
      </root>
    </mxGraphModel>
  </diagram>
</mxfile>
